<svg width="63" height="63" viewBox="0 0 63 63" fill="none" xmlns="http://www.w3.org/2000/svg">
<g style="mix-blend-mode:screen">
<path d="M30.2588 44.2285L29.8574 44.1484C29.3009 44.0367 28.7556 43.8905 28.2305 43.708C25.2641 42.6761 23.0102 40.6531 21.6719 37.8281L26.6484 35.8975C27.39 37.3681 28.5449 38.3979 30.082 38.9326C31.9703 39.5893 34.1133 39.3658 35.3047 38.7637C36.274 38.2735 37.0131 37.3537 37.1172 36.3584C37.1532 36.0138 37.1081 35.6823 36.9629 35.3711C36.8193 35.0634 36.5914 34.8056 36.3066 34.583C35.8846 34.2531 35.2147 34.0128 34.5352 33.8213C33.8358 33.6242 33.0396 33.4561 32.3135 33.3027C29.2267 32.651 25.3742 31.8067 23.6602 28.3896L23.501 28.0508C22.4552 25.6667 22.7881 23.1176 24.4277 21.0303C25.7073 19.4015 27.6437 18.2758 29.8604 17.8154L30.2588 17.7324V14.5H33.5068V17.668L33.9287 17.7344C38.4515 18.4462 40.9032 21.5142 41.7939 23.5518L36.6582 25.1699C36.2132 24.3919 35.0898 22.9583 32.7529 22.7031C30.8026 22.4897 29.377 23.2509 28.7363 24.0664C28.3817 24.5178 28.2704 24.9633 28.2803 25.3447C28.2874 25.6214 28.3587 25.8461 28.4141 25.9873L28.4609 26.0996C28.7646 26.7916 29.4706 27.2061 30.2891 27.5117C30.9162 27.7459 31.6888 27.944 32.5684 28.1406L33.4824 28.3379C35.7652 28.8202 37.9832 29.2974 39.7256 30.6592C41.725 32.222 42.7106 34.4795 42.4619 36.8594C42.188 39.4799 40.426 41.9402 37.833 43.251C36.6989 43.8244 35.3635 44.1923 33.9551 44.3398L33.5068 44.3867V47.5H30.2588V44.2285Z" stroke="#00B4D8"/>
</g>
<circle cx="31.5" cy="31.5" r="31" stroke="#00B4D8"/>
</svg>
