<svg xmlns="http://www.w3.org/2000/svg" width="63" height="63" viewBox="0 0 63 63" fill="none">
  <path d="M37.5559 42.6192C37.4047 42.7294 37.2253 42.7285 37.0478 42.7431C36.0208 42.8289 33.5417 42.8718 32.5616 42.7441C32.2885 42.7089 32.1042 42.5753 32.034 42.2984L32.0262 13.5927C32.0262 13.3469 32.2281 13.1109 32.4719 13.0651C33.9279 13.2016 35.7351 12.8739 37.1463 13.0573C37.4193 13.0924 37.6037 13.226 37.6739 13.503L37.6807 42.1111L37.5559 42.6192ZM36.605 14.2305H33.1009V41.5718H36.605V14.2305Z" fill="#0FBFE2"/>
  <path d="M24.1705 42.6193L24.0691 20.2333C24.1452 19.9807 24.544 19.9007 24.7801 19.8744C25.6071 19.7818 28.3612 19.7603 29.1365 19.8978C29.2692 19.9212 29.5276 20.0061 29.6066 20.1094L29.6924 42.3004C29.6222 42.5774 29.4379 42.71 29.1648 42.7461C28.1769 42.8748 25.7153 42.829 24.6786 42.7451C24.5011 42.7305 24.3217 42.7305 24.1705 42.6213V42.6193ZM28.6245 41.5719V21.1881L28.4782 21.0418H25.2667L25.1204 21.1881V41.5729H28.6245V41.5719Z" fill="#0FBFE2"/>
  <path d="M47.8712 45.1948C48.1218 45.4464 47.9882 46.0209 47.6303 46.1242C46.8832 46.3398 45.3862 45.9935 44.5514 46.1603C44.2891 46.4285 44.2315 46.726 43.897 46.9659C43.2026 47.4633 42.1962 47.4369 41.6022 46.7923C41.4121 46.5855 41.3467 46.1632 41.1341 46.1379L36.6528 46.1447C36.3827 46.1964 36.2091 46.7494 35.9184 46.9669C34.9715 47.6729 33.6032 47.2604 33.2355 46.1398H28.4909C28.1203 47.2399 26.833 47.6564 25.8665 47.0059C25.5222 46.7738 25.3398 46.1954 25.0726 46.1447L20.5143 46.1408C19.7848 47.7256 17.9718 47.6729 17.174 46.1603C16.2758 46.017 15.0246 46.3008 14.1751 46.1428C13.7538 46.0647 13.5773 45.4747 13.8552 45.1958C14.1488 44.9013 16.6103 45.1821 17.174 45.0602C17.7182 44.0352 18.8593 43.4793 19.8979 44.2157C20.2997 44.5004 20.3699 45.031 20.7844 45.0807C22.1108 45.2426 23.7892 44.9608 25.1545 45.0593C25.6685 44.2088 26.3112 43.7017 27.3664 43.9494C28.1164 44.125 28.3807 45.0202 28.6733 45.0758H33.0541C33.3467 45.0202 33.611 44.1259 34.361 43.9494C35.4162 43.7017 36.0589 44.2088 36.5728 45.0593C37.3199 44.9637 40.8396 45.2748 41.2365 44.9851C41.4013 44.8652 41.4754 44.4809 41.77 44.2537C42.7891 43.4637 44.0121 44.0109 44.5534 45.0593C45.1132 45.1812 47.5776 44.8993 47.8722 45.1948H47.8712ZM18.4292 45.1948C17.9767 45.6473 18.6798 46.4909 19.2416 46.056C19.8833 45.5596 18.9675 44.6555 18.4292 45.1948ZM26.6506 45.0944C26.1669 45.2377 26.1708 45.9828 26.6506 46.1252C27.6805 46.4305 27.6805 44.7891 26.6506 45.0944ZM34.6292 45.0924C34.0021 45.2865 34.3073 46.4675 35.1431 46.093C35.7419 45.8248 35.383 44.8593 34.6292 45.0924ZM43.2972 45.1948C42.7579 44.6555 41.8421 45.5596 42.4848 46.056C43.0466 46.49 43.7497 45.6473 43.2972 45.1948Z" fill="#0FBFE2"/>
  <path d="M45.5344 42.6161C45.4125 42.7302 45.1892 42.7292 45.0283 42.7429C44.0091 42.8297 41.5144 42.8707 40.5421 42.7439C40.2895 42.7107 40.1432 42.6103 40.032 42.3781L40.0828 28.1677L40.27 27.9658L45.5188 28.038C45.7022 28.2438 45.7324 28.509 45.7568 28.7724C46.141 32.9396 45.4564 37.6872 45.7578 41.9169C45.7578 42.1002 45.6554 42.501 45.5335 42.6161H45.5344ZM44.5855 29.0201H41.1789V41.5716H44.5855V29.0201Z" fill="#0FBFE2"/>
  <path d="M16.192 42.6161C16.0574 42.4893 15.9852 42.11 15.9677 41.9169C15.7521 39.5343 16.1432 36.8328 15.9677 34.4152C15.9618 33.9305 16.2271 33.6457 16.7001 33.5911C17.6773 33.477 19.9886 33.4975 20.9893 33.5882C21.2682 33.6135 21.4896 33.6428 21.6661 33.8847L21.6632 42.4454C21.5335 42.6415 21.4135 42.7146 21.1843 42.7448C20.2139 42.8726 17.7153 42.8307 16.6981 42.7439C16.5372 42.7302 16.3129 42.7312 16.192 42.6171V42.6161ZM20.5465 34.7604H17.1399V41.5716H20.5465V34.7604Z" fill="#0FBFE2"/>
  <circle cx="31.5" cy="31.5" r="31" stroke="#00B4D8"/>
</svg>