<svg xmlns="http://www.w3.org/2000/svg" width="63" height="63" viewBox="0 0 63 63" fill="none">
  <circle cx="31.5" cy="31.5" r="31" stroke="#00B4D8"/>
  <path d="M47.2921 30.0007C47.6606 29.6155 47.8598 29.1742 47.9059 28.638C48.209 25.0579 47.6693 21.0548 47.9059 17.4292C47.8107 16.1332 46.4993 15.4238 45.4295 14.995C42.2218 13.7126 37.1688 13.7194 33.8842 14.7308C32.8191 15.0589 30.866 15.8787 30.713 17.1427C30.9911 20.8854 30.3513 25.1537 30.7102 28.8335C30.9353 31.1438 35.8469 31.9529 37.6768 32.0623C40.1802 32.2123 45.4603 31.9171 47.2912 30.0007H47.2921ZM39.6645 15.0966C41.429 15.1208 43.6602 15.387 45.2775 16.1129C46.659 16.7323 47.5875 17.5347 45.8528 18.5596C42.9318 20.2853 35.9123 20.2437 32.9182 18.6922C30.3176 17.344 32.7392 16.2126 34.3133 15.7412C35.995 15.2379 37.9096 15.0715 39.6635 15.0957L39.6645 15.0966ZM31.7714 19.3165C32.3188 19.5507 32.8153 19.8595 33.38 20.0647C36.7128 21.2764 42.0477 21.2784 45.3592 19.995C45.8692 19.7975 46.3194 19.4704 46.8457 19.3165V21.199C46.8457 21.3258 46.4878 21.7546 46.3579 21.8668C43.8718 24.0068 34.7 24.0474 32.2505 21.8755C32.1447 21.7817 31.7714 21.3945 31.7714 21.2948V19.3155V19.3165ZM31.7714 22.8899C32.7825 23.5664 33.9477 23.9429 35.1311 24.1945C37.8769 24.7782 41.2183 24.7501 43.9488 24.0803C44.9648 23.8306 45.9596 23.4425 46.8457 22.8899V24.9659C46.8457 25.1198 46.4137 25.6125 46.2627 25.7315C43.7285 27.7495 34.6885 27.8047 32.2505 25.6425C32.1447 25.5486 31.7714 25.1614 31.7714 25.0617V22.8889V22.8899ZM46.8457 26.7516V28.6341C46.8457 29.0997 46.001 29.6329 45.6315 29.8275C42.6557 31.3974 35.7151 31.4177 32.7768 29.7472C32.5536 29.6204 31.7714 29.0677 31.7714 28.8277V26.6548C33.1578 27.5656 34.8126 27.9692 36.4414 28.186C39.3605 28.5751 42.8683 28.4057 45.6229 27.3081C45.8287 27.2259 46.7668 26.6694 46.8457 26.7516Z" fill="#00B4D8"/>
  <path d="M14.7149 32.0002C14.4214 32.3119 14.153 32.8374 14.1039 33.2691C14.3473 36.9121 13.7807 40.9791 14.1001 44.5708C14.2165 45.8794 15.4922 46.5704 16.5765 47.005C19.4119 48.1393 23.4335 48.2148 26.4112 47.6747C27.8149 47.4202 31.0852 46.5685 31.292 44.8592C31.014 41.1165 31.6538 36.8482 31.2949 33.1684C31.0698 30.862 26.1563 30.049 24.3283 29.9397C21.8441 29.7906 16.5198 30.0829 14.7139 32.0012L14.7149 32.0002ZM24.0137 31.0295C25.5973 31.1233 27.7697 31.4505 29.1686 32.219C30.9235 33.182 30.2856 34.0308 28.7915 34.7161C25.7791 36.0972 19.8554 36.0962 16.8238 34.7848C14.9044 33.9543 14.534 33.0184 16.6323 32.0467C18.6836 31.0972 21.7758 30.8969 24.0137 31.0295ZM15.1603 35.1526C16.1147 35.7478 17.1403 36.1059 18.2314 36.3604C21.0465 37.0176 24.3629 37.0273 27.1819 36.3798C28.2508 36.134 29.3139 35.7555 30.2347 35.1526V37.2286C30.2347 37.487 29.5006 37.9661 29.2764 38.0997C26.34 39.8409 19.3032 39.8118 16.311 38.1965C15.9646 38.0087 15.1603 37.4706 15.1603 37.036V35.1535V35.1526ZM15.1603 38.8227C15.7376 39.1072 16.2995 39.4044 16.9104 39.6212C20.0084 40.7226 24.3735 40.7429 27.5465 39.9338C28.5 39.6909 29.3909 39.326 30.2347 38.8227V40.9955C30.2347 41.2356 29.5496 41.703 29.3389 41.8327C26.4362 43.6107 19.3647 43.5729 16.3745 41.9953C16.0051 41.8008 15.1603 41.2675 15.1603 40.802V38.8227ZM15.1603 42.5886C15.6356 42.7919 16.0676 43.0745 16.5506 43.2671C19.9295 44.6144 26.0225 44.625 29.3409 43.09C29.6507 42.9467 29.9152 42.7145 30.2347 42.5896V44.7625C30.2347 44.9851 29.3736 45.5735 29.1465 45.6964C26.3314 47.2218 20.4827 47.185 17.4848 46.191C16.9277 46.0062 15.1603 45.2444 15.1603 44.5698V42.5906V42.5886Z" fill="#00B4D8"/>
  <path d="M38.7801 35.8294C38.6772 38.2558 36.8357 40.3319 34.3631 40.3667V41.4294C37.3793 41.4875 39.8567 38.8201 39.8375 35.8284L40.357 36.1246L40.9872 35.3939C40.4667 35.0038 39.8432 33.8714 39.1217 33.9924C38.96 34.0195 37.565 35.2845 37.5563 35.3919L38.2529 36.2127L38.7801 35.8284V35.8294Z" fill="#00B4D8"/>
  <path d="M21.6892 25.4964L21.2572 25.209L20.5443 26.0152C20.9003 26.3123 21.6411 27.3266 22.0481 27.4118C22.6446 27.5367 23.2103 26.6985 23.6086 26.3123C23.7722 26.1536 24.031 26.2175 23.8501 25.8836C23.8155 25.8197 23.3075 25.2206 23.2632 25.2109L22.7465 25.5932C22.7465 23.28 24.4351 21.4362 26.67 21.0413L26.6825 19.9922C23.9348 20.1616 21.6161 22.7361 21.6892 25.4964Z" fill="#00B4D8"/>
  <path d="M34.6286 25.6665C35.0596 25.2329 34.4218 24.387 33.8281 24.8138C33.1604 25.2939 34.1023 26.1949 34.6286 25.6665Z" fill="#00B4D8"/>
  <path d="M34.2938 28.4096C33.6472 28.3099 33.323 29.3407 33.9503 29.5352C34.8489 29.813 35.0134 28.5209 34.2938 28.4096Z" fill="#00B4D8"/>
  <path d="M34.2928 20.9737C33.5154 20.8314 33.349 21.9735 34.0513 22.1022C34.8287 22.2445 34.9952 21.1024 34.2928 20.9737Z" fill="#00B4D8"/>
  <path d="M18.0168 41.5978C18.5835 41.0587 17.6349 40.1422 17.1711 40.7955C16.7574 41.3771 17.5569 42.0363 18.0168 41.5978Z" fill="#00B4D8"/>
  <path d="M18.0168 44.448C17.5579 44.0106 16.7564 44.6677 17.1702 45.2504C17.6185 45.8805 18.6162 45.021 18.0168 44.448Z" fill="#00B4D8"/>
  <path d="M17.2 37.0108C16.7574 37.4551 17.4116 38.391 17.9976 37.8626C18.6047 37.3157 17.7118 36.4959 17.2 37.0108Z" fill="#00B4D8"/>
</svg>