<svg xmlns="http://www.w3.org/2000/svg" width="63" height="63" viewBox="0 0 63 63" fill="none">
  <path d="M28.8675 14.1093C32.9043 13.8075 38.2547 14.0708 41.998 15.6594C45.3899 17.0987 46.3194 19.4357 42.5895 21.3158C37.4808 23.8895 26.285 23.8599 21.2089 21.2211C20.0289 20.6072 18.6679 19.5585 19.0994 18.0705C19.8569 15.4598 26.5296 14.2838 28.8675 14.1093ZM31.5256 15.1403C28.7726 15.1802 23.2073 15.8 20.994 17.4552C18.5138 19.31 22.5046 20.6339 24.0227 21.0658C28.9268 22.4651 36.4045 22.4754 41.1959 20.6605C42.6399 20.1132 45.0712 18.9994 43.0061 17.4552C40.6015 15.658 34.4965 15.0974 31.5271 15.1403H31.5256Z" fill="#00B4D8"/>
  <path d="M20.0348 22.6147V26.6691C20.0348 28.7118 24.9374 29.9484 26.5073 30.2339C30.6376 30.9853 35.6039 30.9335 39.6482 29.7295C40.8698 29.3656 43.9667 28.203 43.9667 26.6691V22.6147H45.0015V27.4057C45.0015 27.9353 43.728 29.0565 43.2758 29.3686C38.4281 32.7085 26.328 32.6094 21.2667 29.7162C20.6767 29.379 19.0015 28.0906 19.0015 27.4057V22.6147H20.0362H20.0348Z" fill="#00B4D8"/>
  <path d="M20.0348 38.8306V42.737C20.0348 43.734 21.4535 44.6969 22.2526 45.0933C26.9743 47.4363 37.1443 47.4348 41.8512 45.049C42.628 44.6555 43.9652 43.6926 43.9652 42.737V38.8306H45V43.4737C45 43.876 44.0141 44.9617 43.6717 45.2442C39.2123 48.9303 25.0604 48.8637 20.4899 45.3773C20.103 45.083 19 43.9218 19 43.4737V38.8306H20.0348Z" fill="#00B4D8"/>
  <path d="M20.0348 30.7217V34.7761C20.0348 36.0792 22.5357 37.2019 23.5868 37.5702C28.276 39.215 35.6128 39.2135 40.3049 37.6072C41.3575 37.2463 43.9667 36.0999 43.9667 34.7761V30.7217H45.0015V35.3648C45.0015 35.8573 43.9934 36.8779 43.5946 37.2048C39.1204 40.8584 24.8988 40.8421 20.4084 37.2048C20.0096 36.8824 19.0015 35.8558 19.0015 35.3648V30.7217H20.0362H20.0348Z" fill="#00B4D8"/>
  <path d="M32.5915 26.0049H31.4085V27.1853H32.5915V26.0049Z" fill="#00B4D8"/>
  <path d="M32.5915 34.1118H31.4085V35.2922H32.5915V34.1118Z" fill="#00B4D8"/>
  <path d="M32.5915 42.0728L32.4537 43.188C32.2031 43.2916 31.6279 43.336 31.4737 43.1141L31.4085 42.0728H32.5915Z" fill="#00B4D8"/>
  <path d="M43.3789 28L43.789 28.0464L51.6594 31.2091C51.8064 31.3119 51.873 31.4717 51.8978 31.6503C51.9915 32.3348 51.9371 33.2524 51.9613 33.9606C52.1736 40.2717 51.7109 46.4529 45.4259 49.3198C45.0666 49.484 43.8695 49.9886 43.5428 49.9998C43.2259 50.0105 41.9574 49.4815 41.6029 49.3198C34.8564 46.2423 34.7348 39.1052 35.1256 32.457C35.1819 31.5005 34.9018 31.4197 35.8351 31.0041C38.3044 29.9041 40.9024 29.0856 43.3789 28Z" fill="#0F2744"/>
  <path d="M43.3789 28L43.789 28.0464L51.6594 31.2091C51.8064 31.3119 51.873 31.4717 51.8978 31.6503C51.9915 32.3348 51.9371 33.2524 51.9613 33.9606C52.1736 40.2716 51.7109 46.4529 45.4259 49.3198C45.0666 49.484 43.8695 49.9886 43.5428 49.9998C43.2259 50.0105 41.9574 49.4815 41.6029 49.3198C34.8564 46.2423 34.7348 39.1052 35.1256 32.457C35.1819 31.5005 34.9018 31.4197 35.8351 31.0041C38.3044 29.9041 40.9024 29.0856 43.3789 28ZM43.4938 29.0674L36.2144 31.9593C36.0203 32.1279 36.1061 32.8694 36.091 33.1446C35.8128 38.1231 35.8206 44.231 40.237 47.3592C41.2242 48.0581 42.3857 48.5996 43.5398 48.9306C47.6876 47.7171 50.0129 44.7224 50.7394 40.3807C51.1283 38.0572 51.1713 34.6833 50.9378 32.3329C50.9269 32.2207 50.8997 32.0333 50.815 31.96L43.4938 29.068V29.0674Z" fill="#00B4D8"/>
  <circle cx="31.5" cy="31.5" r="31" stroke="#00B4D8"/>
</svg>