<svg width="63" height="63" viewBox="0 0 63 63" fill="none" xmlns="http://www.w3.org/2000/svg">
<g clip-path="url(#clip0_105_29)">
<path d="M36.1418 15.5885C39.0359 18.3451 37.5139 23.1819 37.8846 26.7426C40.5184 27.661 42.6384 29.835 42.8657 32.6599C43.0326 34.727 43.1246 41.1666 42.6357 42.9598C41.9037 45.6457 39.329 47.6499 36.519 47.866C34.0836 48.0525 30.0579 48.0358 27.6107 47.866C24.6824 47.6653 22.0565 45.6843 21.3349 42.8595C20.8631 41.011 20.9827 34.902 21.1338 32.7859C21.3336 29.9919 23.426 27.4501 26.2294 26.8159C26.4213 24.3563 26.0165 21.628 26.2451 19.2006C26.6881 14.4835 32.6523 12.2658 36.1418 15.5885ZM36.5795 26.5728V18.942C36.5795 18.7182 36.1063 17.6338 35.9512 17.3778C34.2913 14.634 30.0592 14.5632 28.2797 17.2196C28.1325 17.4395 27.5516 18.6487 27.5516 18.8147V26.5728H36.5795ZM26.9996 27.8913C24.8586 28.1576 22.7728 30.2196 22.4823 32.3125C22.1997 34.3489 22.2379 39.7992 22.4495 41.896C22.6795 44.1703 24.9111 46.352 27.2256 46.5771C29.5401 46.8022 34.5042 46.7983 36.7753 46.5771C39.0319 46.3571 41.2741 44.2282 41.5383 42.0117C41.8025 39.7953 41.7709 34.6949 41.5514 32.5364C41.3319 30.3778 39.2448 28.1691 37.0013 27.89C34.8932 27.6276 29.109 27.6276 26.9996 27.89V27.8913Z" fill="#00B4D8"/>
<path d="M31.3461 34.4596C31.492 33.9528 32.6552 34.1149 32.6552 34.4596V39.8457C32.6552 40.4528 31.3461 40.4528 31.3461 39.8457V34.4596Z" fill="#00B4D8"/>
</g>
<circle cx="31.5" cy="31.5" r="31" stroke="#00B4D8"/>
<defs>
<clipPath id="clip0_105_29">
<rect width="22" height="34" fill="white" transform="translate(21 14)"/>
</clipPath>
</defs>
</svg>
