<svg width="63" height="63" viewBox="0 0 63 63" fill="none" xmlns="http://www.w3.org/2000/svg">
<g clip-path="url(#clip0_105_30)">
<path d="M28.8675 14.1094C32.9043 13.8077 38.2547 14.071 41.998 15.6596C45.3899 17.0988 46.3194 19.4359 42.5895 21.3159C37.4808 23.8896 26.285 23.86 21.2089 21.2212C20.0289 20.6074 18.6679 19.5586 19.0994 18.0706C19.8569 15.4599 26.5296 14.284 28.8675 14.1094ZM31.5256 15.1404C28.7726 15.1803 23.2073 15.8001 20.994 17.4553C18.5138 19.3101 22.5046 20.634 24.0227 21.0659C28.9268 22.4652 36.4045 22.4755 41.1959 20.6606C42.6399 20.1133 45.0712 18.9995 43.0061 17.4553C40.6015 15.6581 34.4965 15.0975 31.5271 15.1404H31.5256Z" fill="#00B4D8"/>
<path d="M20.0348 22.6146V26.669C20.0348 28.7117 24.9374 29.9483 26.5073 30.2338C30.6376 30.9852 35.6039 30.9334 39.6482 29.7294C40.8698 29.3655 43.9667 28.2029 43.9667 26.669V22.6146H45.0015V27.4056C45.0015 27.9352 43.728 29.0564 43.2758 29.3685C38.4281 32.7084 26.328 32.6093 21.2667 29.7161C20.6767 29.3788 19.0015 28.0905 19.0015 27.4056V22.6146H20.0362H20.0348Z" fill="#00B4D8"/>
<path d="M20.0348 38.8307V42.7372C20.0348 43.7341 21.4535 44.697 22.2526 45.0935C26.9743 47.4365 37.1443 47.435 41.8512 45.0491C42.628 44.6556 43.9652 43.6927 43.9652 42.7372V38.8307H45V43.4738C45 43.8761 44.0141 44.9618 43.6717 45.2443C39.2123 48.9304 25.0604 48.8638 20.4899 45.3775C20.103 45.0831 19 43.922 19 43.4738V38.8307H20.0348Z" fill="#00B4D8"/>
<path d="M20.0348 30.7219V34.7763C20.0348 36.0794 22.5357 37.2021 23.5868 37.5704C28.276 39.2153 35.6128 39.2138 40.3049 37.6074C41.3575 37.2465 43.9667 36.1002 43.9667 34.7763V30.7219H45.0015V35.365C45.0015 35.8576 43.9934 36.8782 43.5946 37.2051C39.1204 40.8586 24.8988 40.8423 20.4084 37.2051C20.0096 36.8826 19.0015 35.8561 19.0015 35.365V30.7219H20.0362H20.0348Z" fill="#00B4D8"/>
<path d="M32.5915 26.0049H31.4084V27.1853H32.5915V26.0049Z" fill="#00B4D8"/>
<path d="M32.5915 34.1122H31.4084V35.2926H32.5915V34.1122Z" fill="#00B4D8"/>
<path d="M32.5915 42.073L32.4536 43.1883C32.2031 43.2918 31.6279 43.3362 31.4737 43.1143L31.4084 42.073H32.5915Z" fill="#00B4D8"/>
</g>
<circle cx="31.5" cy="31.5" r="31" stroke="#00B4D8"/>
<defs>
<clipPath id="clip0_105_30">
<rect width="26" height="34" fill="white" transform="translate(19 14)"/>
</clipPath>
</defs>
</svg>
