<svg width="176" height="49" viewBox="0 0 176 49" fill="none" xmlns="http://www.w3.org/2000/svg">
<g clip-path="url(#clip0_174_34719)">
<path d="M15.1566 36.1066V33.2809C16.9078 33.2809 18.6591 33.2809 20.4103 33.2809C20.9315 33.2809 21.4736 33.3227 21.9531 33.1971C22.8913 32.9669 23.5167 32.3808 23.3916 31.3343C23.2874 30.3296 22.6828 29.8063 21.6404 29.8063C20.4729 29.8063 19.3054 29.8063 18.1587 29.6388C15.782 29.2621 14.3644 27.4411 14.4478 25.0758C14.5312 22.6897 16.0739 20.8268 18.3881 20.6593C20.7439 20.4919 23.1206 20.6175 25.5807 20.6175V23.5269C23.6626 23.5269 21.7238 23.5269 19.8057 23.5269C18.4298 23.5269 17.7001 24.0711 17.6792 25.0549C17.6584 26.0805 18.4506 26.6666 19.8683 26.7085C20.8273 26.7085 21.7655 26.6875 22.7245 26.7713C25.1012 26.9806 26.7065 28.8434 26.6648 31.2715C26.6231 33.8879 24.9761 35.9601 22.6619 36.0647C20.2018 36.1694 17.7418 36.0857 15.1566 36.0857V36.1066Z" fill="white"/>
<path d="M38.5691 28.3412C38.5691 31.6483 38.5691 34.9764 38.5691 38.2835C38.1729 39.0161 37.7143 39.7278 37.2348 40.4185C37.068 40.1255 36.9429 39.7487 36.9221 39.4766C36.8595 32.0251 36.8804 24.5736 36.8804 17.1221C36.8804 16.7453 36.8595 16.3057 37.0263 16.0127C37.5892 16.7662 38.1104 17.5825 38.5691 18.4198C38.5691 21.7269 38.5691 25.0341 38.5691 28.3412Z" fill="white"/>
<path d="M4.23217 19.6127V28.4457C4.23217 32.0459 4.23217 35.6251 4.23217 39.2253C4.23217 39.623 4.27387 40.0416 4.14878 40.3765C4.12793 40.4393 4.06538 40.523 4.00284 40.5858C3.48164 39.8742 3.00213 39.1206 2.56432 38.3462C2.56432 31.6901 2.56432 25.0339 2.56432 18.3778V17.5615C2.56432 17.3103 2.48093 16.9963 2.58517 16.787C2.79365 16.3893 3.10637 16.0335 3.3774 15.6567C3.52333 15.8451 3.75266 16.0335 3.91945 16.2219C4.06538 16.3893 4.16963 16.5568 4.19047 16.7242C4.31556 17.6661 4.23217 18.629 4.23217 19.5709V19.6127Z" fill="white"/>
<path d="M21.411 48.9792C21.1192 48.9792 20.8481 48.9792 20.5563 48.9792C20.2644 48.9792 19.9934 48.9792 19.7223 48.9792C19.7223 47.3884 19.7223 45.7977 19.7223 44.1859C19.7223 43.9348 19.764 43.6836 19.7849 43.3696H21.3902V47.3884C21.3902 47.9117 21.3902 48.435 21.3902 48.9792H21.411Z" fill="white"/>
<path d="M21.411 13.2914H19.8683C19.8266 12.9984 19.7432 12.7053 19.7432 12.4332C19.7432 8.74932 19.7015 5.06542 19.764 1.38153C19.764 0.921039 20.2644 0.460552 20.5354 0.0209961C20.8273 0.460552 21.3693 0.900108 21.3693 1.36059C21.4319 5.29567 21.411 9.23074 21.411 13.3123V13.2914Z" fill="white"/>
<path d="M11.1329 41.4018C11.0704 43.16 11.0912 44.9183 11.0912 46.6556C10.5283 46.3625 9.96541 46.0276 9.42336 45.6718C9.42336 43.474 9.42336 41.2762 9.42336 39.0994C9.42336 38.9529 9.46506 38.7854 9.50676 38.5552C10.6743 39.225 11.1746 40.0413 11.1329 41.4018Z" fill="white"/>
<path d="M9.40251 18.0008C9.40251 15.8239 9.40251 13.6262 9.40251 11.4493C9.40251 9.67017 9.36082 7.91195 9.44421 6.13279C9.44421 5.75603 9.94456 5.4002 10.2364 5.02344C10.5283 5.37927 11.0495 5.71417 11.0495 6.07C11.1121 9.43993 11.1538 12.8099 11.0287 16.1798C11.0078 16.8496 10.2156 17.4984 9.77778 18.1682C9.65269 18.1055 9.5276 18.0636 9.40251 18.0008Z" fill="white"/>
<path d="M0.750533 33.9087C0.250178 32.1504 0 30.2876 0 28.3619C0 26.4362 0.271026 24.5105 0.771381 22.7104V28.2991C0.771381 30.162 0.813078 32.0248 0.750533 33.9087Z" fill="white"/>
<path d="M41.1125 28.3618C41.1125 30.2665 40.8624 32.1294 40.362 33.8876C40.2995 30.2037 40.2995 26.5198 40.362 22.8359C40.8415 24.5942 41.1125 26.457 41.1125 28.3618Z" fill="white"/>
<path d="M24.851 48.5396C24.2881 48.6652 23.7252 48.7489 23.1623 48.8327C23.1623 47.1372 23.1623 45.4418 23.2248 43.7464C23.2248 43.3487 24.0587 42.9719 24.4966 42.5742C24.6216 42.6998 24.7259 42.8254 24.851 42.93C24.851 44.7929 24.851 46.6558 24.851 48.5187V48.5396Z" fill="white"/>
<path d="M24.8718 13.773C23.6209 13.8777 23.1206 13.5219 23.1623 12.266C23.2457 9.54494 23.1831 6.80294 23.1831 4.08189C23.1831 3.43302 23.0997 2.6167 24.0171 2.6167C24.9344 2.6167 24.8718 3.39115 24.8718 4.06095C24.8718 7.30529 24.8718 10.5496 24.8718 13.794V13.773Z" fill="white"/>
<path d="M31.7309 18.0219C30.334 17.3103 30.0213 16.4102 30.0422 15.1543C30.1256 12.2449 30.0422 9.35639 30.1047 6.44695C30.1047 5.96553 30.5217 5.14921 30.8344 5.10735C31.7726 4.96083 31.71 5.81901 31.71 6.46788C31.71 10.2774 31.71 14.0659 31.71 18.0428L31.7309 18.0219Z" fill="white"/>
<path d="M31.7309 45.6722C31.1888 46.028 30.6259 46.3629 30.0422 46.656C30.0422 44.6257 30.0422 42.6163 30.1047 40.6069C30.1256 39.8952 30.8761 39.2254 31.2931 38.5347C31.439 38.5975 31.5641 38.6812 31.71 38.744C31.71 41.0673 31.71 43.3698 31.71 45.6931L31.7309 45.6722Z" fill="white"/>
<path d="M35.1291 42.9091C34.7538 43.2859 34.3577 43.6627 33.9616 43.9976C33.7531 43.7882 33.5447 43.5999 33.5447 43.3905C33.4821 40.9835 33.357 38.5345 33.5655 36.1483C33.6697 34.9553 34.462 33.804 34.9415 32.6528C35.004 32.6528 35.0874 32.6738 35.15 32.6947C35.15 36.1065 35.15 39.4973 35.1291 42.9091Z" fill="white"/>
<path d="M7.71381 38.3252C7.52618 39.9997 7.71381 41.716 7.63042 43.3905C7.63042 43.5998 7.40109 43.8091 7.17176 44.0185C6.77564 43.6836 6.40038 43.3487 6.04596 42.9719C6.00426 39.4764 6.02511 35.9809 6.02511 32.4854C6.87988 34.3692 7.98483 36.1065 7.73466 38.3252H7.71381Z" fill="white"/>
<path d="M6.00426 24.1128C6.00426 20.5336 6.00426 16.9334 6.04596 13.3542C6.04596 12.9983 6.50462 12.6634 6.73395 12.3076C7.04667 12.6425 7.60957 12.9565 7.63042 13.3123C7.71381 15.7403 7.81805 18.1684 7.60957 20.5755C7.50533 21.7895 6.7131 22.9616 6.21275 24.1547C6.1502 24.1547 6.08766 24.1547 6.00426 24.1547V24.1128Z" fill="white"/>
<path d="M35.15 24.0918C32.6899 20.5754 33.6906 16.8078 33.5238 13.1867C33.5238 12.8936 33.9825 12.6006 34.2326 12.2866C34.5245 12.5797 35.0874 12.8727 35.1083 13.1657C35.1708 16.745 35.15 20.3242 35.15 24.0709V24.0918Z" fill="white"/>
<path d="M17.9502 44.3741C17.9085 45.8602 17.9085 47.3463 17.9085 48.8324C17.3665 48.7697 16.8244 48.665 16.2824 48.5603C16.2824 46.6765 16.2824 44.7718 16.2824 42.867C17.5958 42.7624 17.9711 43.2647 17.9294 44.3741H17.9502Z" fill="white"/>
<path d="M16.3033 13.773C16.3033 10.3193 16.3033 6.8866 16.3449 3.43295C16.3449 3.16085 16.8453 2.86781 17.1163 2.5957C17.3874 2.86781 17.8669 3.13991 17.8877 3.43295C17.9503 6.63543 17.9711 9.81698 17.8877 13.0195C17.8877 13.3753 17.0955 13.7102 16.6577 14.0451C16.5534 13.9614 16.4492 13.8567 16.3241 13.773H16.3033Z" fill="white"/>
<path d="M14.5312 43.3906C14.4269 44.9395 14.5312 46.5093 14.4686 48.0791C13.9266 47.9117 13.3845 47.7233 12.8633 47.4931C12.8216 45.4627 12.8633 43.4115 12.8633 41.3184C14.135 41.5905 14.6354 42.1556 14.552 43.3906H14.5312Z" fill="white"/>
<path d="M12.8425 15.2171C12.8425 12.8937 12.8008 10.5704 12.8842 8.26795C12.8842 7.93305 13.4054 7.61908 13.6764 7.28418C13.9474 7.64001 14.4478 7.99584 14.4686 8.3726C14.552 10.2146 14.5937 12.0984 14.4686 13.9403C14.4269 14.4845 13.7389 14.9869 13.322 15.5102C13.1552 15.4264 13.0092 15.3218 12.8425 15.238V15.2171Z" fill="white"/>
<path d="M28.2492 47.4931C27.728 47.7024 27.2068 47.8908 26.6648 48.0582C26.6022 46.3 26.6648 44.5208 26.6439 42.7626C26.6439 41.6742 27.4778 41.6533 28.2701 41.3184C28.2701 43.4533 28.2909 45.4837 28.2701 47.4931H28.2492Z" fill="white"/>
<path d="M28.2701 15.2172C26.9983 15.0707 26.5397 14.5055 26.6022 13.2915C26.7065 11.7007 26.5814 10.089 26.6648 8.47732C26.6856 8.0587 27.2068 7.68194 27.4779 7.30518C27.728 7.68194 28.2075 8.0587 28.2075 8.45639C28.2701 10.696 28.2492 12.9357 28.2492 15.2172H28.2701Z" fill="white"/>
<path d="M52.7875 27.8178C53.4129 28.1736 54.4762 28.4248 55.3518 28.4248C56.7695 28.4248 57.4783 27.6712 57.4783 26.6456C57.4783 25.5362 56.7695 24.9502 55.4561 24.1129C53.3295 22.7943 52.5373 21.1616 52.5373 19.7592C52.5373 17.2475 54.1843 15.1753 57.4575 15.1753C58.4999 15.1753 59.4589 15.4683 59.8967 15.7404L59.4172 18.3568C58.9794 18.0847 58.3122 17.8336 57.4366 17.8336C56.144 17.8336 55.5186 18.6289 55.5186 19.4453C55.5186 20.3872 55.9981 20.8686 57.666 21.8942C59.7299 23.1292 60.4805 24.7199 60.4805 26.3526C60.4805 29.2201 58.3748 31.083 55.3518 31.083C54.1009 31.083 52.8917 30.7691 52.3705 30.4551L52.8083 27.8387L52.7875 27.8178Z" fill="white"/>
<path d="M69.2992 27.3782L68.6112 30.9365H65.6716L69.049 15.3218H72.6766L75.6996 30.9365H72.76L72.0929 27.3782H69.2992ZM71.8427 25.0129L71.3215 21.7477C71.1756 20.8058 70.9671 19.2359 70.8211 18.2103H70.7586C70.5918 19.2568 70.3625 20.8686 70.1957 21.7686L69.6328 25.0339H71.8427V25.0129Z" fill="white"/>
<path d="M83.7053 30.9365L80.2236 15.3218H83.5594L84.6643 22.0616C84.9353 23.7361 85.2481 25.6409 85.4565 27.4828H85.5191C85.7276 25.6409 85.9777 23.7571 86.2488 21.9988L87.312 15.3218H90.6269L87.0827 30.9365H83.7053Z" fill="white"/>
<path d="M103.157 24.071H99.6124V28.2991H103.615V30.9365H96.5894V15.3218H103.344V17.9591H99.6124V21.5384H103.157V24.071Z" fill="white"/>
<path d="M118.918 30.5179C118.251 30.79 116.833 31.0621 115.707 31.0621C113.935 31.0621 112.58 30.5597 111.558 29.5132C110.224 28.1945 109.515 25.8921 109.557 23.2129C109.64 17.5405 112.851 15.1753 116.145 15.1753C117.333 15.1753 118.209 15.4055 118.688 15.6567L118.167 18.2731C117.729 18.0429 117.125 17.9173 116.395 17.9173C114.352 17.9173 112.705 19.3406 112.705 23.4013C112.705 27.148 114.164 28.5085 115.561 28.5085C115.832 28.5085 116.041 28.4876 116.166 28.4248V24.6781H114.769V22.1873H118.939V30.5179H118.918Z" fill="white"/>
<path d="M125.798 15.5728C126.757 15.3844 127.945 15.2798 129.092 15.2798C130.739 15.2798 132.24 15.531 133.24 16.431C134.179 17.2892 134.471 18.3357 134.471 19.6753C134.471 21.3498 133.657 22.836 132.073 23.5686V23.6104C133.136 24.05 133.657 25.0128 133.97 26.7082C134.262 28.4455 134.679 30.3712 134.971 30.9363H131.823C131.635 30.4968 131.281 28.9269 131.051 27.2106C130.78 25.264 130.301 24.7198 129.279 24.7198H128.821V30.9363H125.819V15.5519L125.798 15.5728ZM128.821 22.3755H129.363C130.676 22.3755 131.427 21.308 131.427 19.9474C131.427 18.5869 130.905 17.6659 129.55 17.645C129.279 17.645 128.987 17.6659 128.821 17.7287V22.3755Z" fill="white"/>
<path d="M147.834 24.071H144.29V28.2991H148.293V30.9365H141.267V15.3218H148.022V17.9591H144.29V21.5384H147.834V24.071Z" fill="white"/>
<path d="M154.631 27.8178C155.256 28.1736 156.319 28.4248 157.195 28.4248C158.613 28.4248 159.321 27.6712 159.321 26.6456C159.321 25.5362 158.613 24.9502 157.299 24.1129C155.173 22.7943 154.36 21.1616 154.36 19.7592C154.36 17.2475 156.007 15.1753 159.28 15.1753C160.301 15.1753 161.281 15.4683 161.719 15.7404L161.24 18.3568C160.802 18.0847 160.135 17.8336 159.259 17.8336C157.966 17.8336 157.341 18.6289 157.341 19.4453C157.341 20.3872 157.82 20.8686 159.488 21.8942C161.552 23.1292 162.303 24.7199 162.303 26.3526C162.303 29.2201 160.197 31.083 157.174 31.083C155.923 31.083 154.714 30.7691 154.193 30.4551L154.631 27.8387V27.8178Z" fill="white"/>
<path d="M168.328 27.8178C168.953 28.1736 170.017 28.4248 170.892 28.4248C172.31 28.4248 173.019 27.6712 173.019 26.6456C173.019 25.5362 172.31 24.9502 170.996 24.1129C168.87 22.7943 168.057 21.1616 168.057 19.7592C168.057 17.2475 169.704 15.1753 172.977 15.1753C173.999 15.1753 174.978 15.4683 175.416 15.7404L174.937 18.3568C174.499 18.0847 173.832 17.8336 172.956 17.8336C171.664 17.8336 171.038 18.6289 171.038 19.4453C171.038 20.3872 171.518 20.8686 173.186 21.8942C175.249 23.1292 176 24.7199 176 26.3526C176 29.2201 173.894 31.083 170.871 31.083C169.62 31.083 168.411 30.7691 167.89 30.4551L168.328 27.8387V27.8178Z" fill="white"/>
<path d="M56.3734 44.9394C55.9981 44.9394 55.6437 44.8766 55.3101 44.772C54.9765 44.6464 54.7055 44.4999 54.4762 44.2696C54.2469 44.0603 54.0592 43.8092 53.9133 43.5161C53.7882 43.2231 53.7048 42.9091 53.7048 42.5742C53.7048 42.2393 53.7673 41.9253 53.9133 41.6323C54.0384 41.3393 54.226 41.0881 54.4762 40.8788C54.7264 40.6695 54.9974 40.502 55.331 40.3764C55.6437 40.2509 55.9981 40.209 56.3942 40.209C56.7903 40.209 57.103 40.2718 57.4366 40.3764C57.7702 40.4811 58.0412 40.6485 58.2497 40.8788L57.9161 41.1928C57.7076 41.0044 57.4783 40.8579 57.2281 40.7741C56.978 40.6904 56.7069 40.6485 56.4151 40.6485C56.1232 40.6485 55.8313 40.6904 55.5603 40.7951C55.3101 40.8997 55.0808 41.0253 54.8723 41.1928C54.6847 41.3602 54.5179 41.5695 54.4136 41.7998C54.3094 42.03 54.2469 42.2812 54.2469 42.5742C54.2469 42.8673 54.3094 43.0975 54.4136 43.3487C54.5179 43.5789 54.6638 43.7882 54.8723 43.9557C55.0599 44.1231 55.2893 44.2696 55.5603 44.3534C55.8313 44.4371 56.1023 44.4999 56.4151 44.4999C56.7278 44.4999 56.978 44.458 57.2281 44.3743C57.4783 44.2906 57.7076 44.1441 57.9161 43.9557L58.2497 44.2696C58.0204 44.4999 57.7493 44.6673 57.4366 44.772C57.103 44.8976 56.7695 44.9394 56.3942 44.9394H56.3734Z" fill="white"/>
<path d="M63.1699 44.8978V40.272H65.2338C65.7759 40.272 66.2554 40.3766 66.6515 40.565C67.0685 40.7534 67.3812 41.0255 67.6105 41.3813C67.8398 41.7372 67.9441 42.1349 67.9441 42.5953C67.9441 43.0558 67.8398 43.4535 67.6105 43.8094C67.3812 44.1652 67.0685 44.4373 66.6515 44.6257C66.2345 44.814 65.7759 44.9187 65.2338 44.9187H63.1699V44.8978ZM63.7119 44.4791H65.213C65.6716 44.4791 66.0469 44.3954 66.3805 44.228C66.714 44.0605 66.9642 43.8512 67.1519 43.5582C67.3395 43.2651 67.4229 42.9512 67.4229 42.5744C67.4229 42.1976 67.3395 41.8627 67.1519 41.5906C66.9642 41.3185 66.714 41.0883 66.3805 40.9208C66.0469 40.7534 65.6508 40.6697 65.213 40.6697H63.7119V44.4582V44.4791Z" fill="white"/>
<path d="M75.1367 44.9394C74.7614 44.9394 74.407 44.8766 74.0734 44.772C73.7399 44.6464 73.4688 44.4999 73.2395 44.2696C73.0102 44.0603 72.8225 43.8092 72.6766 43.5161C72.5515 43.2231 72.4681 42.9091 72.4681 42.5742C72.4681 42.2393 72.5307 41.9253 72.6766 41.6323C72.8017 41.3393 72.9893 41.0881 73.2395 40.8788C73.4897 40.6695 73.7607 40.502 74.0943 40.3764C74.407 40.2509 74.7614 40.209 75.1575 40.209C75.5537 40.209 75.8664 40.2718 76.1999 40.3764C76.5335 40.4811 76.8045 40.6485 77.013 40.8788L76.6794 41.1928C76.471 41.0044 76.2416 40.8579 75.9915 40.7741C75.7413 40.6904 75.4703 40.6485 75.1784 40.6485C74.8865 40.6485 74.5946 40.6904 74.3236 40.7951C74.0734 40.8997 73.8441 41.0253 73.6356 41.1928C73.448 41.3602 73.2812 41.5695 73.177 41.7998C73.0727 42.03 73.0102 42.2812 73.0102 42.5742C73.0102 42.8673 73.0727 43.0975 73.177 43.3487C73.2812 43.5789 73.4271 43.7882 73.6356 43.9557C73.8233 44.1231 74.0526 44.2696 74.3236 44.3534C74.5946 44.4371 74.8657 44.4999 75.1784 44.4999C75.4911 44.4999 75.7413 44.458 75.9915 44.3743C76.2416 44.2906 76.471 44.1441 76.6794 43.9557L77.013 44.2696C76.7837 44.4999 76.5127 44.6673 76.1999 44.772C75.8664 44.8976 75.5328 44.9394 75.1575 44.9394H75.1367Z" fill="white"/>
<path d="M81.4328 42.7834V42.3647H83.33V42.7834H81.4328Z" fill="white"/>
<path d="M89.3343 44.8978V40.6906H87.5414V40.272H91.6484V40.6906H89.8555V44.8978H89.3134H89.3343Z" fill="white"/>
<path d="M96.8396 44.4791H99.8834V44.8978H96.2975V40.272H99.7792V40.6906H96.8396V44.4791ZM96.7771 42.3442H99.4665V42.7628H96.7771V42.3442Z" fill="white"/>
<path d="M107.118 44.9394C106.742 44.9394 106.388 44.8766 106.054 44.772C105.721 44.6464 105.45 44.4999 105.221 44.2696C104.991 44.0603 104.804 43.8092 104.658 43.5161C104.512 43.2231 104.449 42.9091 104.449 42.5742C104.449 42.2393 104.512 41.9253 104.658 41.6323C104.783 41.3393 104.97 41.0881 105.221 40.8788C105.45 40.6695 105.742 40.502 106.054 40.3764C106.388 40.2509 106.742 40.209 107.118 40.209C107.493 40.209 107.827 40.2718 108.16 40.3764C108.494 40.4811 108.765 40.6485 108.973 40.8788L108.64 41.1928C108.431 41.0044 108.202 40.8579 107.952 40.7741C107.701 40.6904 107.43 40.6485 107.139 40.6485C106.826 40.6485 106.555 40.6904 106.284 40.7951C106.013 40.8997 105.804 41.0253 105.596 41.1928C105.408 41.3602 105.241 41.5695 105.137 41.7998C105.033 42.03 104.97 42.2812 104.97 42.5742C104.97 42.8673 105.033 43.0975 105.137 43.3487C105.241 43.5789 105.387 43.7882 105.596 43.9557C105.783 44.1231 106.013 44.2696 106.284 44.3534C106.534 44.458 106.826 44.4999 107.139 44.4999C107.43 44.4999 107.701 44.458 107.952 44.3743C108.202 44.2906 108.431 44.1441 108.64 43.9557L108.973 44.2696C108.744 44.4999 108.473 44.6673 108.16 44.772C107.827 44.8976 107.493 44.9394 107.118 44.9394Z" fill="white"/>
<path d="M114.456 44.8978H113.914V40.272H114.456V44.8978ZM117.688 42.7628H114.394V42.3232H117.688V42.7628ZM117.625 40.272H118.146V44.8978H117.625V40.272Z" fill="white"/>
<path d="M123.609 44.8978V40.272H124.046L127.549 44.2908H127.32V40.272H127.841V44.8978H127.403L123.9 40.879H124.13V44.8978H123.588H123.609Z" fill="white"/>
<path d="M135.492 44.9394C135.117 44.9394 134.762 44.8766 134.429 44.772C134.095 44.6464 133.824 44.4999 133.574 44.2696C133.345 44.0603 133.157 43.8092 133.011 43.5161C132.886 43.2231 132.803 42.9091 132.803 42.5742C132.803 42.2393 132.865 41.9253 133.011 41.6323C133.136 41.3393 133.324 41.0881 133.574 40.8788C133.824 40.6695 134.095 40.502 134.429 40.3764C134.742 40.2509 135.117 40.209 135.492 40.209C135.867 40.209 136.222 40.2718 136.555 40.3764C136.889 40.502 137.16 40.6485 137.41 40.8788C137.66 41.109 137.827 41.3393 137.973 41.6323C138.098 41.9253 138.181 42.2393 138.181 42.5742C138.181 42.9091 138.119 43.2231 137.973 43.5161C137.848 43.8092 137.66 44.0603 137.41 44.2696C137.16 44.479 136.889 44.6464 136.555 44.772C136.222 44.8976 135.867 44.9394 135.492 44.9394ZM135.492 44.5208C135.805 44.5208 136.076 44.479 136.347 44.3743C136.618 44.2696 136.826 44.1441 137.014 43.9766C137.202 43.8092 137.348 43.5998 137.452 43.3696C137.556 43.1394 137.619 42.8882 137.619 42.5951C137.619 42.3021 137.556 42.0719 137.452 41.8207C137.348 41.5904 137.202 41.3811 137.014 41.2137C136.826 41.0462 136.597 40.8997 136.347 40.816C136.097 40.7323 135.805 40.6695 135.492 40.6695C135.179 40.6695 134.908 40.7113 134.637 40.816C134.387 40.9206 134.158 41.0462 133.949 41.2137C133.762 41.3811 133.595 41.5904 133.491 41.8207C133.386 42.0509 133.324 42.3021 133.324 42.5951C133.324 42.8882 133.386 43.1184 133.491 43.3487C133.595 43.5789 133.741 43.7882 133.949 43.9557C134.137 44.1231 134.366 44.2696 134.637 44.3534C134.908 44.4371 135.179 44.4999 135.492 44.4999V44.5208Z" fill="white"/>
<path d="M143.143 44.8978V40.272H143.685V44.4791H146.521V44.8978H143.143Z" fill="white"/>
<path d="M153.317 44.9394C152.942 44.9394 152.588 44.8766 152.254 44.772C151.92 44.6464 151.649 44.4999 151.399 44.2696C151.149 44.0603 150.982 43.8092 150.836 43.5161C150.711 43.2231 150.628 42.9091 150.628 42.5742C150.628 42.2393 150.69 41.9253 150.836 41.6323C150.961 41.3393 151.149 41.0881 151.399 40.8788C151.649 40.6695 151.92 40.502 152.254 40.3764C152.588 40.2509 152.942 40.209 153.317 40.209C153.692 40.209 154.047 40.2718 154.38 40.3764C154.714 40.502 154.985 40.6485 155.235 40.8788C155.465 41.0881 155.652 41.3393 155.798 41.6323C155.923 41.9253 156.007 42.2393 156.007 42.5742C156.007 42.9091 155.944 43.2231 155.798 43.5161C155.673 43.8092 155.485 44.0603 155.235 44.2696C154.985 44.479 154.714 44.6464 154.38 44.772C154.068 44.8976 153.713 44.9394 153.317 44.9394ZM153.317 44.5208C153.63 44.5208 153.901 44.479 154.172 44.3743C154.422 44.2696 154.651 44.1441 154.839 43.9766C155.027 43.8092 155.173 43.5998 155.277 43.3696C155.381 43.1394 155.444 42.8882 155.444 42.5951C155.444 42.3021 155.381 42.0719 155.277 41.8207C155.173 41.5904 155.027 41.3811 154.839 41.2137C154.651 41.0462 154.422 40.8997 154.172 40.816C153.922 40.7323 153.63 40.6695 153.317 40.6695C153.004 40.6695 152.733 40.7113 152.462 40.816C152.212 40.9206 151.983 41.0462 151.774 41.2137C151.587 41.3811 151.42 41.5904 151.316 41.8207C151.212 42.0509 151.149 42.3021 151.149 42.5951C151.149 42.8882 151.212 43.1184 151.316 43.3487C151.42 43.5789 151.566 43.7882 151.774 43.9557C151.962 44.1231 152.191 44.2696 152.462 44.3534C152.733 44.4371 153.004 44.4999 153.317 44.4999V44.5208Z" fill="white"/>
<path d="M163.199 44.9394C162.803 44.9394 162.449 44.8766 162.136 44.772C161.802 44.6464 161.531 44.4999 161.281 44.2696C161.031 44.0603 160.864 43.8092 160.718 43.5161C160.593 43.2231 160.51 42.9091 160.51 42.5742C160.51 42.2393 160.572 41.9253 160.718 41.6323C160.843 41.3393 161.031 41.0881 161.281 40.8788C161.531 40.6695 161.802 40.502 162.136 40.3764C162.47 40.2509 162.824 40.209 163.199 40.209C163.575 40.209 163.95 40.2718 164.262 40.3764C164.575 40.4811 164.867 40.6485 165.076 40.8788L164.742 41.1928C164.534 41.0044 164.304 40.8579 164.033 40.7741C163.762 40.6904 163.512 40.6485 163.199 40.6485C162.887 40.6485 162.595 40.6904 162.324 40.7951C162.053 40.8997 161.823 41.0253 161.636 41.1928C161.448 41.3602 161.281 41.5695 161.177 41.7998C161.073 42.03 161.01 42.2812 161.01 42.5742C161.01 42.8673 161.073 43.0975 161.177 43.3277C161.281 43.558 161.427 43.7673 161.636 43.9347C161.823 44.1022 162.053 44.2487 162.324 44.3324C162.595 44.4371 162.866 44.479 163.178 44.479C163.47 44.479 163.741 44.4371 163.991 44.3534C164.242 44.2696 164.492 44.1441 164.7 43.9557L165.013 44.3324C164.763 44.5208 164.492 44.6673 164.158 44.772C163.825 44.8766 163.491 44.9185 163.137 44.9185L163.199 44.9394ZM164.554 44.2906V42.5742H165.076V44.3324L164.554 44.2696V44.2906Z" fill="white"/>
<path d="M171.58 44.8978V43.1814L171.705 43.4954L169.558 40.272H170.142L172.039 43.0977H171.726L173.623 40.272H174.165L172.018 43.4954L172.143 43.1814V44.8978H171.622H171.58Z" fill="white"/>
</g>
<defs>
<clipPath id="clip0_174_34719">
<rect width="176" height="49" fill="white"/>
</clipPath>
</defs>
</svg>
