<svg xmlns="http://www.w3.org/2000/svg" version="1.1" xmlns:xlink="http://www.w3.org/1999/xlink" width="42" height="49"><svg version="1.2" xmlns="http://www.w3.org/2000/svg" viewBox="0 0 42 49" width="42" height="49"><defs><clipPath clipPathUnits="userSpaceOnUse" id="SvgjsClipPath1001"><path d="m0 0h176v49h-176z"></path></clipPath></defs><style>.a{fill:#fff}</style><g clip-path="url(#cp1)"><path class="a" d="m15.2 36.1v-2.8q2.6 0 5.2 0c0.5 0 1.1 0 1.6-0.1 0.9-0.2 1.5-0.8 1.4-1.9-0.1-1-0.7-1.5-1.8-1.5-1.1 0-2.3 0-3.4-0.2-2.4-0.3-3.8-2.2-3.8-4.5 0.1-2.4 1.7-4.3 4-4.4 2.3-0.2 4.7-0.1 7.2-0.1v2.9q-2.9 0-5.8 0c-1.4 0-2.1 0.6-2.1 1.6 0 1 0.8 1.6 2.2 1.6 0.9 0 1.9 0 2.8 0.1 2.4 0.2 4 2 4 4.5-0.1 2.6-1.7 4.7-4 4.8-2.5 0.1-5 0-7.5 0z"></path><path class="a" d="m38.6 28.3q0 5 0 10-0.6 1.1-1.4 2.1c-0.1-0.3-0.3-0.7-0.3-0.9 0-7.5 0-14.9 0-22.4 0-0.4 0-0.8 0.1-1.1q0.9 1.2 1.6 2.4 0 5 0 9.9z"></path><path class="a" d="m4.2 19.6v8.8q0 5.4 0 10.8c0 0.4 0.1 0.8-0.1 1.2q0 0.1-0.1 0.2-0.8-1.1-1.4-2.3 0-9.9 0-19.9v-0.8c0-0.3-0.1-0.6 0-0.8 0.2-0.4 0.5-0.8 0.8-1.1 0.1 0.1 0.4 0.3 0.5 0.5q0.2 0.3 0.3 0.5c0.1 1 0 1.9 0 2.9z"></path><path class="a" d="m21.4 49q-0.4 0-0.8 0-0.5 0-0.9 0 0-2.4 0-4.8c0-0.3 0.1-0.5 0.1-0.8h1.6v4q0 0.8 0 1.6z"></path><path class="a" d="m21.4 13.3h-1.5c-0.1-0.3-0.2-0.6-0.2-0.9 0-3.7 0-7.3 0.1-11 0-0.5 0.5-0.9 0.7-1.4 0.3 0.5 0.9 0.9 0.9 1.4 0 3.9 0 7.8 0 11.9z"></path><path class="a" d="m11.1 41.4c0 1.8 0 3.5 0 5.3q-0.9-0.5-1.7-1 0-3.3 0-6.6 0-0.2 0.1-0.5c1.2 0.6 1.7 1.4 1.6 2.8z"></path><path class="a" d="m9.4 18q0-3.3 0-6.6c0-1.7 0-3.5 0-5.3 0-0.3 0.5-0.7 0.8-1.1 0.3 0.4 0.8 0.7 0.8 1.1 0.1 3.3 0.2 6.7 0 10.1 0 0.6-0.8 1.3-1.2 2q-0.2-0.1-0.4-0.2z"></path><path class="a" d="m0.8 33.9q-0.8-2.6-0.8-5.5c0-2 0.3-3.9 0.8-5.7v5.6c0 1.9 0 3.7 0 5.6z"></path><path class="a" d="m41.1 28.4q0 2.8-0.7 5.5-0.1-5.5 0-11.1c0.4 1.8 0.7 3.7 0.7 5.6z"></path><path class="a" d="m24.9 48.5q-0.9 0.2-1.7 0.3-0.1-2.5 0-5.1c0-0.4 0.9-0.7 1.3-1.1q0.2 0.2 0.4 0.3 0 2.8 0 5.6z"></path><path class="a" d="m24.9 13.8c-1.3 0.1-1.8-0.3-1.7-1.5 0-2.8 0-5.5 0-8.2 0-0.7-0.1-1.5 0.8-1.5 0.9 0 0.9 0.8 0.9 1.5q0 4.8 0 9.7z"></path><path class="a" d="m31.7 18c-1.4-0.7-1.7-1.6-1.7-2.8 0.1-3 0-5.8 0.1-8.8 0-0.4 0.4-1.3 0.7-1.3 1-0.1 0.9 0.7 0.9 1.4 0 3.8 0 7.6 0 11.5z"></path><path class="a" d="m31.7 45.7q-0.8 0.5-1.7 1c0-2.1 0-4.1 0.1-6.1 0-0.7 0.8-1.4 1.2-2.1q0.2 0.1 0.4 0.2 0 3.5 0 7z"></path><path class="a" d="m35.1 42.9q-0.5 0.6-1.1 1.1c-0.2-0.2-0.5-0.4-0.5-0.6 0-2.4-0.1-4.9 0.1-7.3 0.1-1.1 0.9-2.3 1.3-3.4q0.1 0 0.2 0 0.1 5.1 0 10.2z"></path><path class="a" d="m7.7 38.3c-0.2 1.7 0 3.4-0.1 5.1 0 0.2-0.2 0.4-0.4 0.6q-0.6-0.5-1.2-1c0-3.5 0-7 0-10.5 0.9 1.9 2 3.6 1.7 5.8z"></path><path class="a" d="m6 24.1q0-5.4 0-10.7c0-0.4 0.5-0.7 0.7-1.1 0.3 0.3 0.9 0.7 0.9 1 0.1 2.4 0.2 4.9 0 7.3-0.1 1.2-0.9 2.4-1.4 3.6q-0.1 0-0.2 0z"></path><path class="a" d="m35.1 24.1c-2.4-3.5-1.4-7.3-1.6-10.9 0-0.3 0.5-0.6 0.7-0.9 0.3 0.3 0.9 0.6 0.9 0.9 0.1 3.5 0 7.1 0 10.9z"></path><path class="a" d="m18 44.4q-0.1 2.2-0.1 4.4-0.8-0.1-1.6-0.2 0-2.9 0-5.7c1.3-0.1 1.7 0.4 1.6 1.5z"></path><path class="a" d="m16.3 13.8q0-5.2 0-10.4c0-0.2 0.5-0.5 0.8-0.8 0.3 0.3 0.8 0.5 0.8 0.8 0.1 3.2 0.1 6.4 0 9.6 0 0.4-0.8 0.7-1.2 1q-0.2-0.1-0.4-0.2z"></path><path class="a" d="m14.5 43.4c-0.1 1.5 0 3.1 0 4.7q-0.8-0.3-1.6-0.6c-0.1-2 0-4.1 0-6.2 1.2 0.3 1.7 0.9 1.7 2.1z"></path><path class="a" d="m12.8 15.2c0-2.3 0-4.6 0.1-6.9 0-0.4 0.5-0.7 0.8-1 0.2 0.3 0.7 0.7 0.8 1.1 0.1 1.8 0.1 3.7 0 5.5-0.1 0.6-0.8 1.1-1.2 1.6q-0.2-0.1-0.5-0.3z"></path><path class="a" d="m28.2 47.5q-0.7 0.3-1.5 0.6c-0.1-1.8 0-3.6-0.1-5.3 0-1.1 0.9-1.1 1.7-1.5 0 2.2 0 4.2 0 6.2z"></path><path class="a" d="m28.3 15.2c-1.3-0.1-1.8-0.7-1.7-1.9 0.1-1.6 0-3.2 0.1-4.8 0-0.4 0.5-0.8 0.8-1.2 0.2 0.4 0.7 0.8 0.7 1.2 0.1 2.2 0 4.4 0 6.7z"></path><path class="a" d="m52.8 27.8c0.6 0.4 1.7 0.6 2.6 0.6 1.4 0 2.1-0.7 2.1-1.8 0-1.1-0.7-1.6-2-2.5-2.2-1.3-3-2.9-3-4.3 0-2.6 1.7-4.6 5-4.6 1 0 2 0.3 2.4 0.5l-0.5 2.7c-0.4-0.3-1.1-0.6-2-0.6-1.3 0-1.9 0.8-1.9 1.6 0 1 0.5 1.5 2.2 2.5 2 1.2 2.8 2.8 2.8 4.5 0 2.8-2.1 4.7-5.1 4.7-1.3 0-2.5-0.3-3-0.6l0.4-2.7z"></path><path class="a" d="m69.3 27.4l-0.7 3.5h-2.9l3.3-15.6h3.7l3 15.6h-2.9l-0.7-3.5zm2.5-2.4l-0.5-3.3c-0.1-0.9-0.3-2.5-0.5-3.5-0.2 1.1-0.4 2.7-0.6 3.6l-0.6 3.2h2.2z"></path><path class="a" d="m83.7 30.9l-3.5-15.6h3.4l1.1 6.8c0.2 1.6 0.5 3.5 0.8 5.4 0.2-1.9 0.5-3.7 0.7-5.5l1.1-6.7h3.3l-3.5 15.6z"></path><path class="a" d="m103.2 24.1h-3.6v4.2h4v2.6h-7v-15.6h6.7v2.7h-3.7v3.5h3.6z"></path><path class="a" d="m118.9 30.5c-0.6 0.3-2.1 0.6-3.2 0.6-1.8 0-3.1-0.5-4.1-1.6-1.4-1.3-2.1-3.6-2-6.3 0-5.7 3.3-8 6.5-8 1.2 0 2.1 0.2 2.6 0.5l-0.5 2.6q-0.7-0.4-1.8-0.4c-2 0-3.7 1.4-3.7 5.5 0 3.7 1.5 5.1 2.9 5.1q0.4 0 0.6-0.1v-3.7h-1.4v-2.5h4.1v8.3z"></path><path class="a" d="m125.8 15.6c1-0.2 2.1-0.3 3.3-0.3 1.6 0 3.1 0.2 4.1 1.1 1 0.9 1.3 1.9 1.3 3.3 0 1.6-0.8 3.1-2.4 3.9 1 0.5 1.6 1.4 1.9 3.1 0.3 1.7 0.7 3.7 1 4.2h-3.2c-0.2-0.4-0.5-2-0.7-3.7-0.3-1.9-0.8-2.5-1.8-2.5h-0.5v6.2h-3v-15.3zm3 6.8h0.6c1.3 0 2-1.1 2-2.5 0-1.3-0.5-2.3-1.8-2.3-0.3 0-0.6 0-0.8 0.1z"></path><path class="a" d="m147.8 24.1h-3.5v4.2h4v2.6h-7v-15.6h6.7v2.7h-3.7v3.5h3.5z"></path><path class="a" d="m154.6 27.8c0.7 0.4 1.7 0.6 2.6 0.6 1.4 0 2.1-0.7 2.1-1.8 0-1.1-0.7-1.6-2-2.5-2.1-1.3-2.9-2.9-2.9-4.3 0-2.6 1.6-4.6 4.9-4.6 1 0 2 0.3 2.4 0.5l-0.5 2.7c-0.4-0.3-1.1-0.6-1.9-0.6-1.3 0-2 0.8-2 1.6 0 1 0.5 1.5 2.2 2.5 2.1 1.2 2.8 2.8 2.8 4.5 0 2.8-2.1 4.7-5.1 4.7-1.3 0-2.5-0.3-3-0.6l0.4-2.7z"></path><path class="a" d="m168.3 27.8c0.7 0.4 1.7 0.6 2.6 0.6 1.4 0 2.1-0.7 2.1-1.8 0-1.1-0.7-1.6-2-2.5-2.1-1.3-2.9-2.9-2.9-4.3 0-2.6 1.6-4.6 4.9-4.6 1 0 2 0.3 2.4 0.5l-0.5 2.7c-0.4-0.3-1.1-0.6-1.9-0.6-1.3 0-2 0.8-2 1.6 0 1 0.5 1.5 2.2 2.5 2 1.2 2.8 2.8 2.8 4.5 0 2.8-2.1 4.7-5.1 4.7-1.3 0-2.5-0.3-3-0.6l0.4-2.7z"></path><path class="a" d="m56.4 44.9q-0.6 0-1.1-0.1c-0.3-0.2-0.6-0.3-0.8-0.5q-0.4-0.3-0.6-0.8-0.2-0.4-0.2-0.9 0-0.5 0.2-1 0.2-0.4 0.6-0.7 0.3-0.3 0.8-0.5 0.5-0.2 1.1-0.2c0.4 0 0.7 0.1 1 0.2q0.5 0.1 0.8 0.5l-0.3 0.3q-0.3-0.3-0.7-0.4-0.3-0.2-0.8-0.2-0.4 0-0.8 0.2-0.4 0.1-0.7 0.4-0.3 0.2-0.5 0.6-0.1 0.3-0.2 0.8c0 0.3 0.1 0.5 0.2 0.7q0.2 0.4 0.5 0.7 0.3 0.2 0.7 0.4 0.4 0.1 0.8 0.1 0.5 0 0.8-0.1 0.4-0.2 0.7-0.4l0.3 0.3q-0.3 0.3-0.8 0.5-0.5 0.1-1 0.1z"></path><path class="a" d="m63.2 44.9v-4.6h2q0.9 0 1.5 0.3 0.6 0.2 0.9 0.8 0.3 0.5 0.3 1.2 0 0.7-0.3 1.2-0.3 0.5-0.9 0.8-0.7 0.3-1.5 0.3h-2zm0.5-0.4h1.5q0.7 0 1.2-0.3 0.5-0.2 0.8-0.6 0.2-0.5 0.2-1 0-0.6-0.2-1-0.3-0.4-0.8-0.7-0.5-0.2-1.2-0.2h-1.5v3.8z"></path><path class="a" d="m75.1 44.9q-0.5 0-1-0.1c-0.4-0.2-0.6-0.3-0.9-0.5q-0.3-0.3-0.5-0.8-0.2-0.4-0.2-0.9 0-0.5 0.2-1 0.2-0.4 0.5-0.7 0.4-0.3 0.9-0.5 0.5-0.2 1.1-0.2c0.4 0 0.7 0.1 1 0.2q0.5 0.1 0.8 0.5l-0.3 0.3q-0.3-0.3-0.7-0.4-0.4-0.2-0.8-0.2-0.5 0-0.9 0.2-0.4 0.1-0.7 0.4-0.3 0.2-0.4 0.6-0.2 0.3-0.2 0.8c0 0.3 0.1 0.5 0.2 0.7q0.1 0.4 0.4 0.7 0.3 0.2 0.7 0.4 0.4 0.1 0.9 0.1 0.4 0 0.8-0.1 0.4-0.2 0.7-0.4l0.3 0.3q-0.3 0.3-0.8 0.5-0.5 0.1-1 0.1z"></path><path class="a" d="m81.4 42.8v-0.4h1.9v0.4z"></path><path class="a" d="m89.3 44.9v-4.2h-1.8v-0.4h4.1v0.4h-1.7v4.2h-0.6z"></path><path class="a" d="m96.8 44.5h3.1v0.4h-3.6v-4.6h3.5v0.4h-3zm0-2.1h2.7v0.4h-2.7z"></path><path class="a" d="m107.1 44.9q-0.5 0-1-0.1c-0.4-0.2-0.6-0.3-0.9-0.5q-0.3-0.3-0.5-0.8-0.3-0.4-0.3-0.9 0-0.5 0.3-1 0.1-0.4 0.5-0.7 0.4-0.3 0.9-0.5 0.5-0.2 1-0.2 0.6 0 1.1 0.2 0.5 0.1 0.8 0.5l-0.4 0.3q-0.3-0.3-0.6-0.4-0.4-0.2-0.9-0.2-0.4 0-0.8 0.2c-0.3 0.1-0.5 0.2-0.7 0.4q-0.3 0.2-0.5 0.6-0.1 0.3-0.1 0.8c0 0.3 0 0.5 0.1 0.7q0.2 0.4 0.5 0.7 0.3 0.2 0.7 0.4 0.4 0.1 0.8 0.1 0.5 0 0.9-0.1 0.3-0.2 0.6-0.4l0.4 0.3q-0.4 0.3-0.8 0.5-0.5 0.1-1.1 0.1z"></path><path class="a" d="m114.5 44.9h-0.6v-4.6h0.6zm3.2-2.2h-3.3v-0.4h3.3zm-0.1-2.5h0.5v4.6h-0.5z"></path><path class="a" d="m123.6 44.9v-4.6h0.4l3.5 4h-0.2v-4h0.5v4.6h-0.4l-3.5-4h0.2v4h-0.5z"></path><path class="a" d="m135.5 44.9q-0.6 0-1.1-0.1c-0.3-0.2-0.6-0.3-0.8-0.5q-0.4-0.3-0.6-0.8-0.2-0.4-0.2-0.9 0-0.5 0.2-1 0.2-0.4 0.6-0.7 0.3-0.3 0.8-0.5c0.3-0.1 0.7-0.2 1.1-0.2q0.6 0 1.1 0.2c0.3 0.1 0.6 0.2 0.8 0.5 0.3 0.2 0.4 0.4 0.6 0.7q0.2 0.5 0.2 1 0 0.5-0.2 0.9-0.2 0.5-0.6 0.8-0.4 0.3-0.8 0.5-0.5 0.1-1.1 0.1zm0-0.4q0.5 0 0.8-0.1 0.4-0.2 0.7-0.4 0.3-0.3 0.5-0.6 0.1-0.4 0.1-0.8c0-0.3 0-0.5-0.1-0.8q-0.2-0.3-0.5-0.6-0.3-0.2-0.7-0.4-0.3-0.1-0.8-0.1-0.5 0-0.9 0.1-0.3 0.2-0.7 0.4-0.2 0.3-0.4 0.6-0.2 0.4-0.2 0.8c0 0.3 0.1 0.5 0.2 0.7q0.1 0.4 0.4 0.7 0.3 0.2 0.7 0.4 0.4 0.1 0.9 0.1z"></path><path class="a" d="m143.1 44.9v-4.6h0.6v4.2h2.8v0.4z"></path><path class="a" d="m153.3 44.9q-0.5 0-1-0.1c-0.4-0.2-0.7-0.3-0.9-0.5q-0.4-0.3-0.6-0.8-0.2-0.4-0.2-0.9 0-0.5 0.2-1 0.2-0.4 0.6-0.7 0.4-0.3 0.9-0.5 0.5-0.2 1-0.2 0.6 0 1.1 0.2c0.3 0.1 0.6 0.2 0.8 0.5q0.4 0.3 0.6 0.7 0.2 0.5 0.2 1 0 0.5-0.2 0.9-0.2 0.5-0.6 0.8-0.3 0.3-0.8 0.5-0.5 0.1-1.1 0.1zm0-0.4q0.5 0 0.9-0.1 0.4-0.2 0.6-0.4 0.3-0.3 0.5-0.6 0.1-0.4 0.1-0.8c0-0.3 0-0.5-0.1-0.8q-0.2-0.3-0.5-0.6-0.2-0.2-0.6-0.4-0.4-0.1-0.9-0.1-0.4 0-0.8 0.1-0.4 0.2-0.7 0.4-0.3 0.3-0.5 0.6-0.1 0.4-0.2 0.8c0 0.3 0.1 0.5 0.2 0.7q0.2 0.4 0.5 0.7 0.3 0.2 0.7 0.4 0.4 0.1 0.8 0.1z"></path><path class="a" d="m163.2 44.9q-0.6 0-1.1-0.1c-0.3-0.2-0.6-0.3-0.8-0.5q-0.4-0.3-0.6-0.8-0.2-0.4-0.2-0.9 0-0.5 0.2-1 0.2-0.4 0.6-0.7 0.3-0.3 0.8-0.5 0.5-0.2 1.1-0.2c0.4 0 0.8 0.1 1.1 0.2q0.4 0.1 0.8 0.5l-0.4 0.3q-0.3-0.3-0.7-0.4c-0.2-0.1-0.5-0.2-0.8-0.2q-0.5 0-0.9 0.2-0.4 0.1-0.7 0.4-0.3 0.2-0.4 0.6-0.2 0.3-0.2 0.8c0 0.3 0.1 0.5 0.2 0.7q0.1 0.4 0.4 0.6 0.3 0.3 0.7 0.4 0.4 0.2 0.9 0.2 0.4 0 0.8-0.1 0.4-0.2 0.7-0.4l0.3 0.3q-0.4 0.3-0.8 0.5-0.5 0.1-1.1 0.1zm1.4-0.6v-1.7h0.5v1.7l-0.5-0.1z"></path><path class="a" d="m171.6 44.9v-1.7l0.1 0.3-2.1-3.2h0.5l1.9 2.8h-0.3l1.9-2.8h0.6l-2.2 3.2 0.1-0.3v1.7h-0.5z"></path></g></svg><style>@media (prefers-color-scheme: light) { :root { filter: none; } }
@media (prefers-color-scheme: dark) { :root { filter: none; } }
</style></svg>